<svg width="55" height="41" viewBox="0 0 55 41" fill="none" xmlns="http://www.w3.org/2000/svg">
<g id="logo lapaQ">
<rect id="Rectangle 2" x="44.0425" y="36.5137" width="8.29235" height="8.29235" rx="4.14617" transform="rotate(-43.5 44.0425 36.5137)" fill="#2B2A4C"/>
<rect id="Rectangle 3" x="0.000976562" y="9.06104" width="16.5847" height="2.76412" rx="1.38206" fill="#2B2A4C"/>
<rect id="Rectangle 4" x="7.00293" y="13.4839" width="8.29234" height="2.76412" rx="1.38206" fill="#2B2A4C"/>
<rect id="Rectangle 5" x="8.29346" y="4.63867" width="11.0565" height="2.76412" rx="1.38206" fill="#2B2A4C"/>
<path id="Rectangle 5_2" d="M13.2799 32.0873L19.044 26.6622L20.1459 28.4423L21.1631 29.7986L22.3499 31.2396L23.9604 32.4263L17.4334 37.0885L13.2799 32.0873Z" fill="#B31312"/>
<g id="Ellipse 1" filter="url(#filter0_d_439_16313)">
<path d="M48.8136 19.0335C48.8136 27.1419 42.2404 33.715 34.132 33.715C26.0237 33.715 19.4505 27.1419 19.4505 19.0335C19.4505 10.925 26.0237 4.35186 34.132 4.35186C42.2404 4.35186 48.8136 10.925 48.8136 19.0335Z" stroke="#B31312" stroke-width="6.57775" shape-rendering="crispEdges"/>
</g>
</g>
<defs>
<filter id="filter0_d_439_16313" x="15.0653" y="0.697558" width="37.7681" height="37.7681" filterUnits="userSpaceOnUse" color-interpolation-filters="sRGB">
<feFlood flood-opacity="0" result="BackgroundImageFix"/>
<feColorMatrix in="SourceAlpha" type="matrix" values="0 0 0 0 0 0 0 0 0 0 0 0 0 0 0 0 0 0 127 0" result="hardAlpha"/>
<feOffset dx="-0.182715" dy="0.548146"/>
<feGaussianBlur stdDeviation="0.456788"/>
<feComposite in2="hardAlpha" operator="out"/>
<feColorMatrix type="matrix" values="0 0 0 0 0 0 0 0 0 0 0 0 0 0 0 0 0 0 0.25 0"/>
<feBlend mode="normal" in2="BackgroundImageFix" result="effect1_dropShadow_439_16313"/>
<feBlend mode="normal" in="SourceGraphic" in2="effect1_dropShadow_439_16313" result="shape"/>
</filter>
</defs>
</svg>
