<svg width="26" height="26" viewBox="0 0 26 26" fill="none" xmlns="http://www.w3.org/2000/svg">
<path id="Vector" d="M1.75 1.75H4.25L4.75 4.25M4.75 4.25H24.25L19.25 14.25H6.75M4.75 4.25L6.75 14.25M6.75 14.25L3.88375 17.1163C3.09625 17.9038 3.65375 19.25 4.7675 19.25H19.25M19.25 19.25C18.587 19.25 17.9511 19.5134 17.4822 19.9822C17.0134 20.4511 16.75 21.087 16.75 21.75C16.75 22.413 17.0134 23.0489 17.4822 23.5178C17.9511 23.9866 18.587 24.25 19.25 24.25C19.913 24.25 20.5489 23.9866 21.0178 23.5178C21.4866 23.0489 21.75 22.413 21.75 21.75C21.75 21.087 21.4866 20.4511 21.0178 19.9822C20.5489 19.5134 19.913 19.25 19.25 19.25ZM9.25 21.75C9.25 22.413 8.98661 23.0489 8.51777 23.5178C8.04893 23.9866 7.41304 24.25 6.75 24.25C6.08696 24.25 5.45107 23.9866 4.98223 23.5178C4.51339 23.0489 4.25 22.413 4.25 21.75C4.25 21.087 4.51339 20.4511 4.98223 19.9822C5.45107 19.5134 6.08696 19.25 6.75 19.25C7.41304 19.25 8.04893 19.5134 8.51777 19.9822C8.98661 20.4511 9.25 21.087 9.25 21.75Z" stroke="#B31312" stroke-width="2" stroke-linecap="round" stroke-linejoin="round"/>
</svg>
